<?xml version="1.0" standalone="no"?>
<!DOCTYPE svg PUBLIC "-//W3C//DTD SVG 20010904//EN"
 "http://www.w3.org/TR/2001/REC-SVG-20010904/DTD/svg10.dtd">
<svg version="1.0" xmlns="http://www.w3.org/2000/svg"
 width="256.000000pt" height="256.000000pt" viewBox="0 0 256.000000 256.000000"
 preserveAspectRatio="xMidYMid meet">
<metadata>
Created by potrace 1.14, written by Peter Selinger 2001-2017
</metadata>
<g transform="translate(0.000000,256.000000) scale(0.100000,-0.100000)"
fill="#000000" stroke="none">
<path d="M504 2354 c-16 -8 -39 -29 -49 -47 -17 -28 -21 -48 -24 -118 -1 -13
-19 -15 -125 -16 -110 0 -128 -3 -165 -23 -81 -46 -76 17 -76 -976 l0 -881 25
-36 c51 -75 -28 -70 1193 -70 1219 0 1136 -5 1187 70 l25 37 0 885 c0 852 -1
887 -19 918 -36 59 -79 74 -220 74 -123 0 -126 0 -127 22 -1 12 0 28 1 36 3
27 -31 96 -56 115 -38 27 -110 33 -149 12 -40 -22 -69 -70 -71 -121 -2 -22 -3
-45 -3 -51 -1 -8 -34 -11 -99 -11 l-98 1 -2 54 c-3 86 -57 142 -137 142 -85 0
-127 -50 -137 -165 l-3 -30 -97 -1 -98 -2 0 43 c0 94 -53 155 -135 155 -79 0
-132 -54 -138 -141 l-4 -54 -97 -1 c-82 -1 -96 1 -97 15 -3 58 -11 96 -25 119
-33 57 -115 78 -180 46z"/>
</g>
</svg>
